<?xml version="1.0" encoding="utf-8"?>
<!-- Generator: Adobe Illustrator 22.0.1, SVG Export Plug-In . SVG Version: 6.00 Build 0)  -->
<svg version="1.1" id="Layer_1" xmlns="http://www.w3.org/2000/svg" xmlns:xlink="http://www.w3.org/1999/xlink" x="0px" y="0px"
	 viewBox="0 0 1057.9 275.7" style="enable-background:new 0 0 1057.9 275.7;" xml:space="preserve">
<style type="text/css">
	.st0{fill:#969696;}
	.st1{fill:none;stroke:#FFFFFF;stroke-width:1.5;stroke-linecap:round;stroke-linejoin:round;stroke-miterlimit:10;}
	.st2{fill:none;stroke:#FFFFFF;stroke-width:1.5;stroke-linecap:round;stroke-linejoin:round;}
	.st3{fill:none;stroke:#FFFFFF;stroke-width:1.5;stroke-linecap:round;stroke-linejoin:round;stroke-dasharray:2.0033,3.0049;}
	.st4{fill:none;stroke:#FFFFFF;stroke-width:1.5;stroke-linecap:round;stroke-linejoin:round;stroke-dasharray:2.0186,3.0279;}
	.st5{fill:none;stroke:#FFFFFF;stroke-width:1.5;stroke-linecap:round;stroke-linejoin:round;stroke-dasharray:1.9653,2.948;}
	.st6{fill:none;stroke:#FFFFFF;stroke-width:1.5;stroke-linecap:round;stroke-linejoin:round;stroke-dasharray:1.9883,2.9825;}
	.st7{fill:none;stroke:#FFFFFF;stroke-width:1.5;stroke-linecap:round;stroke-linejoin:round;stroke-dasharray:2.0227,3.034;}
	.st8{fill:none;stroke:#FFFFFF;stroke-width:1.5;stroke-linecap:round;stroke-linejoin:round;stroke-dasharray:2.009,3.0136;}
	.st9{fill:none;stroke:#FFFFFF;stroke-width:1.5;stroke-linecap:round;stroke-linejoin:round;stroke-dasharray:2.0199,3.0298;}
	.st10{fill:none;stroke:#FFFFFF;stroke-width:1.5;stroke-linecap:round;stroke-linejoin:round;stroke-dasharray:1.9287,2.893;}
	.st11{fill:none;stroke:#FFFFFF;stroke-width:1.5;stroke-linecap:round;stroke-linejoin:round;stroke-dasharray:2.0687,3.1031;}
	.st12{fill:none;stroke:#FFFFFF;stroke-width:1.5;stroke-linecap:round;stroke-linejoin:round;stroke-dasharray:1.8636,2.7954;}
	.st13{fill:none;stroke:#FFFFFF;stroke-width:1.5;stroke-linecap:round;stroke-linejoin:round;stroke-dasharray:2.0507,3.076;}
	.st14{fill:none;stroke:#FFFFFF;stroke-width:1.5;stroke-linecap:round;stroke-linejoin:round;stroke-dasharray:2.0554,3.0831;}
	.st15{fill:none;stroke:#FFFFFF;stroke-width:1.5;stroke-linecap:round;stroke-linejoin:round;stroke-dasharray:2.0136,3.0204;}
	.st16{fill:none;stroke:#FFFFFF;stroke-width:1.5;stroke-linecap:round;stroke-linejoin:round;stroke-dasharray:2.0575,3.0862;}
	.st17{fill:none;stroke:#FFFFFF;stroke-width:1.5;stroke-linecap:round;stroke-linejoin:round;stroke-dasharray:1.7855,2.6783;}
	.st18{fill:#FFFFFF;}
	.st19{fill:#999999;stroke:#999999;stroke-width:13;stroke-miterlimit:10;}
	.st20{fill:#969696;stroke:#969696;stroke-width:6;stroke-miterlimit:10;}
	.st21{fill:#FFFFFF;stroke:#FFFFFF;stroke-width:6;stroke-miterlimit:10;}
	.st22{font-family:'AvenirNext-Bold';}
	.st23{font-size:7px;}
	.st24{font-family:'ArialNarrow-Bold';}
	.st25{font-size:9px;}
	.st26{fill:#FFFFFF;stroke:#FFFFFF;stroke-width:9;stroke-miterlimit:10;}
	.st27{fill:#FFFFFF;stroke:#FFFFFF;stroke-width:4;stroke-miterlimit:10;}
	.st28{fill:#1B1B1B;stroke:#FFFFFF;stroke-width:3;stroke-miterlimit:10;}
	.st29{fill:#6B371A;stroke:#FFFFFF;stroke-width:3;stroke-miterlimit:10;}
	.st30{fill:#7F4D32;}
	.st31{fill:#4C4C4D;}
	.st32{fill:#FFFFFF;stroke:#FFFFFF;stroke-width:4.5;stroke-miterlimit:10;}
	.st33{fill:none;}
</style>
<rect x="47.5" y="80.1" class="st0" width="959.1" height="128.5"/>
<g>
	<path class="st1" d="M468.3,131.7c-5.8-12.7-31.5-34-40.8-43c-5.3-5.2-11.7-9.4-17.9-13.6c-4.9-3.4-10.7-4.6-15.7-0.8
		c-3,2.3-5.4,5.8-6.9,9.3c-2.7,6.4-5,13-6.6,19.7c-2.4,10.6-8.7,18.5-16.6,25.3c-5.4,4.6-8,10.4-10.4,16.7c-0.7,1.7-2.3,6.9-2.4,8.3
		c-1.1,9.4,0.9,11.6,3.7,16.4c1.9,3.3,4.6,8.2,6.9,10.6"/>
	<path class="st1" d="M463,134.7c-5.5-8.6-15.4-18.7-21.1-24.7c-7.5-7.9-15.2-15.5-24.7-20.9c-3.1-1.8-6.7-2.9-10.2-3.4
		c-5.2-0.8-9.5,1.4-12,6c-3,5.6-6.1,11.4-8.2,17.4c-3.6,10.3-9.6,18.6-19,23.9c-11.1,6.3-12.3,16.4-12.4,27.4c0,4,1.7,6.9,4.3,9.9
		c2.5,2.9,4.1,6.8,5.4,10.5"/>
	<path class="st1" d="M364.2,170.1c-5.5-3.8-6.6-9.1-5.8-15.4c0.9-7.3,4-14,10.4-16.8c13.8-6,22-16.2,27.5-29.5
		c3-7.2,8.7-11.8,16.3-11.5c6.1,0.3,11.9,3.7,16.5,7.8c6.5,5.7,24.1,23.4,29.3,33.8"/>
	<path class="st1" d="M373.5,171.5c-1.6-2.6-2.8-5.5-4.9-7.7c-3.6-3.7-4.4-10.4-0.3-13.4c4.2-3.1,8.9-6.4,13.9-7.4
		c10.4-2.2,17.7-7.7,22.9-16.8c2.8-4.9,6.4-9.5,12.9-9.7c8.4-0.3,13.5,5,18,11c0.7,0.9,9.9,17.2,10.6,18.1"/>
	<path class="st1" d="M452.2,141.9c-4.5-10.6-18.2-26.9-24.5-30.5c-13.2-7.4-19.1-6.2-27.1,6.1c-3.3,5.1-6.5,10.4-10.8,14.6
		c-3.8,3.8-8.4,6.9-14.5,7.7c-8.1,1-16.1,14.5-13.3,22c1.5,4.2,4.6,7.8,7,11.7"/>
	<path class="st1" d="M481.2,145.7c4.4-16.2-39.8-50.4-48.4-59.5c-6.6-6.9-12.9-14.2-20.1-20.6c-4.3-3.8-9.6-6.8-15-8.6
		c-7.9-2.7-14.8,2.6-17.5,12.8c-1.8,6.6-2.8,13.4-4.7,20c-2.4,8.3-4.8,16.7-8.1,24.7c-1.6,3.9-4.7,8.4-7.5,11.7"/>
	<path class="st1" d="M327.9,162.4c-0.4,5.6-0.6,11.2,1.5,16c0.4,0.8,2.6,3.3,4.1,4.4c3.8,2.8,14.1,3.1,18.7,0.2"/>
	<path class="st1" d="M344.8,174.2c-3.3-2.3-2.1-12.6-2.6-15.8"/>
	<path class="st1" d="M354.4,177.1c-7.7-9.5-7.1-20.2-7-21c1.1-16.1,7.3-22.7,12.5-29.8"/>
	<path class="st1" d="M338,180.7c3.7,2.7,9.1,2.2,11.4-0.8"/>
	<g>
		<g>
			<g>
				<path class="st2" d="M485.7,136.4c0-0.3-0.1-0.7-0.2-1"/>
				<path class="st3" d="M484.7,132.5c-6.8-19.2-41.5-42.5-50.6-53C423.6,67.6,413,56,402.6,44.2c-4.9-5.6-10.9-5.5-17.1-3.3
					c-6.7,2.3-11.1,6.6-12.2,14.1c-2.2,13.8-5.8,41-12.3,57.8"/>
				<path class="st2" d="M360.4,114.2c-0.1,0.3-0.3,0.6-0.4,0.9"/>
			</g>
		</g>
		<g>
			<g>
				<path class="st2" d="M392.8,17.6c-0.3-0.2-0.6-0.3-0.9-0.5"/>
				<path class="st4" d="M389.1,15.8c-20.6-7.2-33.5,35-34.9,51.6"/>
				<path class="st2" d="M354.1,68.9c0,0.3,0,0.7,0,1"/>
			</g>
		</g>
		<g>
			<g>
				<path class="st2" d="M488.3,123.5c-0.2-0.3-0.4-0.5-0.6-0.8"/>
				<path class="st5" d="M486,120.3c-5.6-7.5-15-18.2-19.5-21.9c-11.7-9.6-23.6-17.3-33.1-28.6C424.3,58.9,415.1,48,406.1,37
					c-3.3-4-5.4-5.3-7.8-6.7"/>
				<path class="st2" d="M397,29.6c-0.3-0.2-0.6-0.3-0.9-0.5"/>
			</g>
		</g>
		<g>
			<g>
				<path class="st2" d="M505.2,134.2c0-0.3-0.1-0.7-0.1-1"/>
				<path class="st6" d="M504.6,130.3c-5.4-31.4-21.3-49.9-29-57.2c-3.7-3.5-9.4-6.8-14.2-6.9c-14.1-0.3-24-7.1-32.5-17.2
					c-6.6-7.8-23.9-26.7-32-36"/>
				<path class="st2" d="M395.9,11.8c-0.2-0.3-0.4-0.5-0.6-0.8"/>
			</g>
		</g>
		<g>
			<g>
				<path class="st2" d="M497.9,124.4c-0.2-0.3-0.3-0.6-0.5-0.9"/>
				<path class="st7" d="M496,120.8c-10.5-18.8-25.7-34.4-34.3-39c-8.6-4.6-17.4-8.2-24.1-15.2c-7.9-8.4-15.1-17.5-22.6-26.2
					c-3.7-4.3-13.3-16.1-20.2-21.4"/>
				<path class="st2" d="M393.6,18.1c-0.3-0.2-0.6-0.4-0.8-0.5"/>
			</g>
		</g>
		<g>
			<g>
				<path class="st2" d="M347.2,179.1c-0.3,0-0.7-0.1-1-0.1"/>
				<path class="st8" d="M343.4,178c-4-2.3-4.4-7.3-4.5-11.1c-0.6-16.9-1.2-33.9,4.1-50.4c3.1-9.6,6.4-19.2,9-29
					c1.1-4.2,1.8-6.3,2-15.1"/>
				<path class="st2" d="M354.1,70.9c0-0.3,0-0.7,0-1"/>
			</g>
		</g>
		<g>
			<g>
				<path class="st2" d="M327.9,162.4c0-0.3,0-0.7,0-1"/>
				<path class="st9" d="M327.9,158.4c0.2-12.4,0.3-24.8,0.5-37.1c0.2-10.1,1.8-20,5.1-29.6c1.3-3.8,2.1-7.7,3-11.6"/>
				<path class="st2" d="M336.9,78.6c0.1-0.3,0.2-0.6,0.2-1"/>
			</g>
		</g>
		<g>
			<g>
				<path class="st2" d="M345.9,126.2c0.1-0.3,0.3-0.6,0.4-0.9"/>
				<path class="st10" d="M347.6,122.7c8-16.8,14.2-34.7,14.7-54"/>
				<path class="st2" d="M362.3,67.2c0-0.3,0-0.7,0-1"/>
			</g>
		</g>
		<g>
			<g>
				<path class="st2" d="M338,180.7c-0.3-0.2-0.5-0.4-0.8-0.6"/>
				<path class="st11" d="M335.6,177.5c-4-8.9-1.8-30.6-1.4-37.1c0.6-9.4,1.9-18.8,3-28.2"/>
				<path class="st2" d="M337.3,110.7c0-0.3,0.1-0.7,0.1-1"/>
			</g>
		</g>
		<g>
			<g>
				<path class="st2" d="M342.2,158.4c-0.1-0.3-0.1-0.7-0.2-1"/>
				<path class="st12" d="M341.7,154.7c-0.5-6.9,0.4-15.5,2.3-22.4l1.1-3.7"/>
				<line class="st2" x1="345.6" y1="127.1" x2="345.9" y2="126.2"/>
			</g>
		</g>
		<g>
			<g>
				<path class="st2" d="M350.6,176.9c-0.3-0.2-0.5-0.4-0.7-0.7"/>
				<path class="st13" d="M348.1,173.8c-3.4-6.4-3.2-17.4-3.3-20.1c-0.3-6.3,1.5-10.6,3-15.8c0.3-1.2,8.2-14.9,11.1-20.5"/>
				<path class="st2" d="M359.6,116c0.2-0.5,0.4-0.8,0.4-0.9"/>
			</g>
		</g>
		<g>
			<g>
				<path class="st2" d="M337.4,109.7c0-0.3,0.1-0.6,0.1-1"/>
				<path class="st14" d="M338.2,105.7c1.6-7.6,5.2-22,6.5-28.6"/>
				<path class="st2" d="M344.9,75.6c0.1-0.4,0.1-0.7,0.1-1"/>
			</g>
		</g>
		<g>
			<g>
				<path class="st2" d="M345,74.6c0-0.1,0.1-0.5,0.1-1"/>
				<path class="st15" d="M345.7,70.7c3.2-17.9,18.7-87.8,47.7-61.4"/>
				<path class="st2" d="M394.5,10.4c0.2,0.2,0.5,0.5,0.7,0.7"/>
			</g>
		</g>
		<g>
			<g>
				<path class="st2" d="M362.3,66.2c0-0.3,0-0.6,0-1"/>
				<path class="st16" d="M362.6,62.1c1.4-12.6,8.9-44.5,31.3-34.2"/>
				<path class="st2" d="M395.2,28.6c0.3,0.2,0.6,0.3,0.9,0.5"/>
			</g>
		</g>
		<g>
			<g>
				<path class="st2" d="M337.1,77.6c0.1-0.3,0.1-0.7,0.2-1"/>
				<path class="st17" d="M337.7,74c1.1-7.4,1.1-13.2,1-16.5"/>
				<path class="st2" d="M338.7,56.2c0-0.4,0-0.7,0-1"/>
			</g>
		</g>
	</g>
</g>
<rect x="277.3" y="-1" class="st18" width="507.1" height="80.1"/>
<g>
	<path class="st19" d="M429.7,146.5c8.9,1.5,13.8,17.8,16.4,25.1l-6.1,3.5c-2.2-5.6-7.8-24.3-13.7-23.1c-0.9,0.3-1.7,0.9-2.6,1.8
		l9.9,24.9l-6.4,3.7l-17.4-44.9c-3.1,5.4-3.9,12.9,3.1,18.1l-4,7.4c-5.3-7.3-6.2-14.3-4.8-20.4c2.7-11.7,14.2-18.8,22.1-12
		C430.8,135,431.5,141.8,429.7,146.5z M422.2,150c3.6-2.7,4.6-7.5,1.2-13.3c-2.3-3.8-5.3-4.8-8.1-3.9L422.2,150z"/>
	<path class="st19" d="M467.6,133.4c-0.8,3.2-1.8,5.9-3.1,7.9c5.7,15-0.5,24.9-7.5,24.8c-5.5,0-9.8-4.6-12.1-10.6
		c-2.5-6.4-2.8-14.1,0-19.6c2.8-5.6,9.3-9.1,15.1-3c1,1,1.9,2.4,2.8,4.1c1.6-1.6,2.9-3.7,3.7-5.8L467.6,133.4z M459.3,145.4
		c-1.7,0.4-3.6,0.2-6-0.6l0.3-5.7c1,0.4,2,0.7,2.9,0.7c-3-4.3-8.1-6.9-8.4-0.6c-0.2,5.7,4.4,20.5,10.2,21.6c3.2,0.6,4.9-4.1,1.1-15
		C459.4,145.6,459.3,145.4,459.3,145.4z"/>
	<path class="st19" d="M479.8,126.4c-0.2-2.2-1.1-6.1-4.1-5c-1.2,0.3-2.4,1.4-2.8,2.7c-1.1,1.5-1,3.8-0.2,4.9c0.8,1.3,1.1,1.4,2.1,2
		c1.3,0.5,3,1,4.9,1.3c1.6,0.2,3.6,0.6,5.3,1.1c1.6,0.6,3,1.4,4.1,2.8c8.9,11.9-10.7,25.4-17.2,15.9c-1.9-2.8-2.1-7,0-10l5.5,2.2
		c-2.4,2.6-2.7,5.4-1.3,6.8c1.6,1.8,5.1,0.8,7.2-1.8c1.1-1.6,1.7-3.5,1.4-5.7c-0.3-2.5-2.9-3.5-4.9-4.1c-2.3-0.4-3.5-0.5-5.3-1.1
		c-1.7-0.3-4-1.3-5.4-2.5c-3.8-2.6-5.3-7.6-2.2-11.9c1.6-2.4,3.9-4,6.5-4.9c3.7-1.5,7.3-1,10.1,1.7c1.2,1.3,2.2,3.3,2.8,5.4
		L479.8,126.4z"/>
	<path class="st19" d="M502.5,116.6c0-2.2-0.6-6.2-3.7-5.3c-1.2,0.2-2.5,1.2-3,2.5c-1.2,1.5-1.3,3.7-0.6,4.9c0.7,1.4,0.9,1.5,2,2.2
		c1.2,0.6,2.9,1.3,4.8,1.7c1.6,0.3,3.6,0.9,5.2,1.5c1.6,0.7,2.8,1.7,3.9,3.1c8,12.5-12.6,24.5-18.3,14.5c-1.6-3-1.6-7.1,0.7-10
		l5.3,2.6c-2.6,2.5-3.1,5.2-1.8,6.7c1.5,1.9,5.1,1.2,7.3-1.2c1.2-1.5,2-3.4,1.8-5.6c-0.1-2.5-2.7-3.7-4.6-4.5
		c-2.2-0.6-3.4-0.7-5.2-1.5c-1.7-0.5-3.9-1.6-5.2-2.9c-3.6-2.9-4.7-8-1.3-12c1.8-2.3,4.2-3.7,6.9-4.4c3.8-1.2,7.4-0.5,9.9,2.5
		c1.1,1.4,1.9,3.4,2.4,5.6L502.5,116.6z"/>
	<path class="st19" d="M535.1,119.3c0.1,14-4.6,16.5-11.2,18c-1.7,0.4-3.5,0.8-5.4,1.2c-0.7,0.2-2.4,0.5-3,0.7l-3.5-49.4l6.8-1.5
		l1.1,15c1.1-1,2.3-1.8,3.7-2.1c2.3-0.5,4.2,0,5.8,1.1c1.4,1,2.5,2.6,3.5,4.5C534.4,110.1,535.2,114.7,535.1,119.3z M526.3,108.3
		c-1.5-2.5-3.8-3.5-6-1.1l1.7,24.4c7.5,4.8,7.8-8.6,6.8-15.3C528.3,113,527.3,110,526.3,108.3z"/>
	<path class="st19" d="M587.6,113.3c0,4.5-0.9,9.1-2.5,12.9c-0.9,2-2,3.8-3.3,5.1c-1.5,1.4-3.3,2.3-5.3,2.3c-2.2,0-5.4-1.2-6.6-3.1
		l-3.1,20.1l-7.5,0l3.3-20.7c-1.6,1.3-3.3,2.4-5,3.2c-0.9,4.7-2.1,9.6-3.2,11.7c-0.8,1.6-1.7,2.7-2.5,3.6c-0.9,0.8-1.8,1.5-2.6,1.7
		c-1,0.3-1.8,0.4-2.6,0.4c-0.7,0-1.4-0.1-2.1-0.5c-0.6-0.4-1.2-0.9-1.7-1.6c-0.4-0.6-0.8-1.4-1.1-2.2c-0.3-0.8-0.4-2-0.3-3.1
		c0.5-6.7,4.7-8.4,9-10.2l0.6-4.1c-5.9,7.9-15.8,7.3-13.4-8.1l3.6-22.7l7.4,0c-1.7,10.8-3,20.2-4.3,27.7c-1.2,7.7,5,3.3,7.6-2.7
		l3.9-25l7.3,0c-4.2,27.4-4.6,28.9-4.9,30.5c1.7-1,3.5-2.4,4.9-3.5l4.2-26.9l7.4,0l-0.3,2.3C582.9,92.6,587.7,103.5,587.6,113.3z
		 M550,135.5c-2.6,1.5-5.8,3.4-5.7,6.3c0,0.6,0.1,1.1,0.5,1.6c0.4,0.5,0.8,0.8,1.4,0.8c0.4,0,1-0.3,1.5-1.2c0.6-0.8,1.2-2.2,1.7-4.1
		C549.7,137.4,549.8,136.9,550,135.5z M574.2,103.8l-3.7,22.7c2.4,4,5.2,2.5,6.9-0.7c1.2-1.9,2-5,2.5-8.2
		C581,110.8,581.3,97.5,574.2,103.8z"/>
	<path class="st19" d="M621.8,126.6c-5.3,12.3-18.6,15.1-17.7,3.1c-7,10.2-18.8,6.6-15.9-7.6c2.2-11.1,7.9-21.7,17.4-20.9l13.3,1.8
		l-0.8,2.6c-3,10.4-5,16.4-7.2,24.2c-2.2,7.8,6.3,2.8,8.9-3.5L621.8,126.6z M609.7,108.2c-2.2-8.1-9.4-1.5-12.8,9.5
		c-3.7,12.3-1.1,19.3,7.9,7.3L609.7,108.2z"/>
	<path class="st19" d="M634.5,129.3c-6.4,13.5-21.8,14.7-15.9-3.2l11.7-35.3l7.1,1.2c-3.8,11.4-10.9,32.3-13.5,40
		c-2.5,7.7,5.8,3.1,8.5-3.1L634.5,129.3z"/>
	<path class="st19" d="M662.7,121.4c-2.6,2.1-5,3.6-7.3,4.4c-4.6,15.4-15.5,19.5-21.1,15.2c-4.4-3.3-5-9.6-3.2-15.8
		c1.9-6.5,6.3-12.9,11.9-15.6c5.6-2.7,12.9-1.7,13.8,6.8c0.2,1.4,0.1,3.1-0.3,4.9c2.2-0.3,4.5-1.2,6.5-2.4L662.7,121.4z
		 M648.8,125.9c-1.6-0.7-3-2-4.4-4.2l3.7-4.3c0.5,1,1.2,1.7,1.9,2.3c0.2-5.2-2.2-10.4-6.3-5.6c-3.6,4.4-8.9,19-5,23.4
		c2.1,2.4,6.4-0.2,10-11.3C648.8,126.1,648.8,125.9,648.8,125.9z"/>
	<path class="st19" d="M688.2,127.2c-2.6,2-5.1,3.4-7.4,4.2c-5,15.2-16,19.1-21.4,14.7c-4.3-3.4-4.8-9.7-2.8-15.8
		c2-6.5,6.6-12.7,12.2-15.3c5.7-2.6,12.9-1.3,13.7,7.1c0.1,1.4,0,3.1-0.4,4.9c2.2-0.2,4.5-1.1,6.5-2.2L688.2,127.2z M674.2,131.4
		c-1.6-0.8-2.9-2.1-4.3-4.3l3.8-4.2c0.5,1,1.1,1.8,1.8,2.3c0.3-5.2-2-10.5-6.1-5.7c-3.7,4.3-9.4,18.8-5.5,23.2
		c2.1,2.5,6.4-0.1,10.3-11C674.2,131.6,674.2,131.4,674.2,131.4z"/>
	<path class="st19" d="M709.7,122.3l-19.3,25c4.3-0.3,8.8,1.3,11.7,4.4l-5.3,3.4c-5.3-3-11.6-4.5-17.2-4.4l-1.1,0l20.7-27.1
		l-9.2-2.2l2-3.4L709.7,122.3z"/>
	<path class="st19" d="M736.6,152.9c-6.7,11.6-20.2,12.8-17.9,1c-8.2,9.3-19.4,4.4-14.9-9.4c3.5-10.7,10.4-20.6,19.7-18.7l13,3.3
		l-1.1,2.5c-4.2,10-6.9,15.7-10,23.2c-3.1,7.4,5.9,3.5,9.2-2.4L736.6,152.9z M726.7,133.3c-1.2-8.3-9.2-2.6-13.8,8
		c-5.1,11.8-3.3,19,7,8.2L726.7,133.3z"/>
</g>
<g>
	<g>
		<path class="st20" d="M407.6,112.4l-0.3-1.5l-2.3,0.4l-0.1-0.7l1.7-4.5l0.5-0.1l0.7,4.1l0.7-0.1l0.1,0.7l-0.7,0.1l0.3,1.5
			L407.6,112.4z M407.2,110.2l-0.5-2.9l-1.1,3.1L407.2,110.2z"/>
		<path class="st20" d="M409.1,108.9c-0.2-1.1-0.2-1.9,0-2.5c0.2-0.6,0.6-0.9,1.1-1c0.5-0.1,0.9,0.1,1.3,0.5c0.4,0.5,0.8,1.3,1,2.5
			c0.2,1.1,0.2,1.9,0,2.5c-0.2,0.6-0.6,0.9-1.1,1c-0.5,0.1-0.9-0.1-1.3-0.5C409.6,110.9,409.3,110.1,409.1,108.9z M409.7,108.8
			c0.2,1,0.4,1.7,0.7,2c0.3,0.3,0.5,0.4,0.9,0.4c0.3-0.1,0.5-0.3,0.6-0.7c0.1-0.4,0.1-1.1-0.1-2.1c-0.2-1-0.4-1.7-0.7-2
			c-0.3-0.3-0.5-0.4-0.9-0.4c-0.3,0-0.5,0.3-0.6,0.7C409.5,107.1,409.6,107.8,409.7,108.8z"/>
	</g>
	<g>
		<path class="st20" d="M412.4,119.4l0.7-0.1c0.1,0.4,0.2,0.7,0.4,0.9c0.2,0.2,0.4,0.3,0.7,0.3c0.3,0,0.6-0.1,0.8-0.4
			c0.2-0.3,0.3-0.7,0.3-1.2c0-0.5-0.1-0.8-0.3-1.1c-0.2-0.3-0.5-0.4-0.8-0.4c-0.2,0-0.4,0.1-0.5,0.2c-0.2,0.1-0.3,0.3-0.4,0.5
			l-0.6-0.1l0.5-3.3l2.6,0l0,0.8l-2.1,0l-0.3,1.7c0.3-0.3,0.6-0.4,1-0.4c0.4,0,0.8,0.2,1.2,0.5s0.5,0.9,0.5,1.5
			c0,0.6-0.1,1.2-0.5,1.6c-0.3,0.5-0.8,0.7-1.3,0.7c-0.5,0-0.8-0.1-1.2-0.5C412.6,120.4,412.4,119.9,412.4,119.4z"/>
		<path class="st20" d="M416.5,117.8c0-1.1,0.1-1.9,0.4-2.5c0.3-0.6,0.7-0.8,1.3-0.9c0.5,0,0.9,0.2,1.2,0.7c0.4,0.5,0.6,1.4,0.6,2.6
			c0,1.1-0.1,1.9-0.4,2.5c-0.3,0.6-0.7,0.8-1.3,0.9c-0.5,0-0.9-0.2-1.3-0.7C416.7,119.8,416.5,119,416.5,117.8z M417.1,117.8
			c0,1,0.1,1.7,0.3,2.1c0.2,0.4,0.5,0.5,0.8,0.5c0.3,0,0.5-0.2,0.7-0.6c0.2-0.4,0.3-1.1,0.3-2.1c0-1-0.1-1.8-0.3-2.1
			c-0.2-0.4-0.5-0.5-0.8-0.5c-0.3,0-0.5,0.2-0.7,0.6C417.2,116,417.1,116.7,417.1,117.8z"/>
	</g>
	<g>
		<path class="st20" d="M402.2,101l0.6-0.2c0.3,0.8,0.7,1.2,1.2,1.1c0.3-0.1,0.5-0.2,0.7-0.5c0.2-0.3,0.2-0.6,0.1-1
			c-0.1-0.4-0.2-0.6-0.5-0.8c-0.2-0.2-0.5-0.3-0.8-0.2c-0.1,0-0.3,0.1-0.4,0.2l-0.1-0.7l0.1,0c0.3-0.1,0.6-0.2,0.7-0.4
			c0.2-0.2,0.2-0.5,0.1-0.8c-0.1-0.3-0.2-0.5-0.4-0.7c-0.2-0.1-0.4-0.2-0.7-0.2c-0.2,0-0.4,0.2-0.6,0.4c-0.1,0.2-0.2,0.5-0.2,0.9
			l-0.7,0c0-0.6,0.1-1,0.3-1.3c0.2-0.3,0.5-0.5,0.9-0.6c0.4-0.1,0.8,0,1.2,0.3c0.4,0.3,0.6,0.6,0.7,1.1c0.1,0.3,0,0.6,0,0.8
			c-0.1,0.2-0.2,0.5-0.4,0.6c0.2,0,0.4,0.1,0.6,0.2c0.2,0.1,0.3,0.3,0.4,0.5c0.1,0.2,0.2,0.4,0.3,0.7c0.1,0.6,0,1.1-0.2,1.5
			c-0.3,0.4-0.6,0.7-1.1,0.8c-0.4,0.1-0.9,0-1.2-0.3C402.6,101.9,402.3,101.5,402.2,101z"/>
		<path class="st20" d="M405.9,98.8c-0.2-1.1-0.2-1.9,0-2.5s0.5-1,1.1-1.1c0.5-0.1,0.9,0,1.3,0.4c0.5,0.5,0.8,1.3,1,2.5
			c0.2,1.1,0.2,1.9,0,2.5c-0.2,0.6-0.5,1-1.1,1.1c-0.5,0.1-0.9-0.1-1.4-0.5C406.5,100.8,406.2,100,405.9,98.8z M406.6,98.6
			c0.2,1,0.4,1.7,0.7,2c0.3,0.3,0.6,0.4,0.9,0.4c0.3-0.1,0.5-0.3,0.6-0.7c0.1-0.4,0.1-1.1-0.1-2.1c-0.2-1-0.4-1.7-0.7-2
			c-0.3-0.3-0.6-0.4-0.9-0.4c-0.3,0.1-0.5,0.3-0.6,0.7C406.3,96.9,406.4,97.6,406.6,98.6z"/>
	</g>
	<g>
		<path class="st20" d="M401.3,89.8l0.1,0.7l-3.4,0.6c-0.1-0.3,0-0.7,0.1-1.1c0.1-0.4,0.4-0.9,0.8-1.5c0.5-0.7,0.8-1.2,0.9-1.6
			c0.1-0.4,0.2-0.7,0.1-1c-0.1-0.3-0.2-0.6-0.4-0.7c-0.2-0.2-0.5-0.2-0.8-0.2c-0.3,0.1-0.5,0.2-0.7,0.5s-0.2,0.6-0.1,1l-0.7,0
			c-0.1-0.6,0-1.1,0.3-1.5c0.2-0.4,0.6-0.6,1.1-0.7c0.5-0.1,1,0,1.3,0.3c0.3,0.3,0.5,0.7,0.6,1.1c0.1,0.4,0,0.8-0.1,1.2
			c-0.1,0.4-0.5,1-1,1.7c-0.3,0.5-0.5,0.8-0.6,0.9c-0.1,0.2-0.2,0.3-0.2,0.5L401.3,89.8z"/>
		<path class="st20" d="M401.6,87.3c-0.2-1.1-0.2-1.9,0-2.5c0.2-0.6,0.6-0.9,1.1-1c0.5-0.1,0.9,0.1,1.3,0.5c0.4,0.5,0.8,1.3,1,2.5
			c0.2,1.1,0.2,1.9,0,2.5c-0.2,0.6-0.6,0.9-1.1,1c-0.5,0.1-0.9-0.1-1.3-0.5S401.8,88.4,401.6,87.3z M402.2,87.1c0.2,1,0.4,1.7,0.7,2
			c0.3,0.3,0.5,0.4,0.9,0.4c0.3-0.1,0.5-0.3,0.6-0.7c0.1-0.4,0.1-1.1-0.1-2.1c-0.2-1-0.4-1.7-0.7-2c-0.3-0.3-0.5-0.4-0.9-0.4
			c-0.3,0.1-0.5,0.3-0.6,0.7C402,85.4,402,86.1,402.2,87.1z"/>
	</g>
	<g>
		<path class="st21" d="M393,76.8l-0.7,0l0-5c-0.1,0.2-0.3,0.4-0.6,0.5c-0.3,0.2-0.5,0.3-0.7,0.4l0-0.8c0.4-0.2,0.7-0.5,0.9-0.8
			c0.3-0.3,0.5-0.6,0.6-0.9l0.4,0L393,76.8z"/>
		<path class="st21" d="M394.6,73.6c0-1.1,0.1-1.9,0.4-2.5c0.3-0.6,0.7-0.8,1.3-0.8c0.5,0,0.9,0.2,1.2,0.7c0.4,0.5,0.5,1.4,0.5,2.6
			c0,1.1-0.1,1.9-0.4,2.5c-0.3,0.6-0.7,0.8-1.3,0.8c-0.5,0-0.9-0.2-1.2-0.7S394.7,74.8,394.6,73.6z M395.3,73.6c0,1,0.1,1.7,0.3,2.1
			c0.2,0.4,0.5,0.5,0.8,0.5c0.3,0,0.5-0.2,0.7-0.5c0.2-0.4,0.3-1.1,0.3-2.1c0-1.1-0.1-1.8-0.3-2.1c-0.2-0.4-0.5-0.5-0.8-0.5
			c-0.3,0-0.5,0.2-0.7,0.5C395.4,71.9,395.3,72.6,395.3,73.6z"/>
	</g>
</g>
<text transform="matrix(0.9859 -0.1674 0.1674 0.9859 404.4591 114.1154)" class="st18 st22 st23">40</text>
<text transform="matrix(0.9999 -1.715000e-02 1.715000e-02 0.9999 412.6673 121.7513)" class="st18 st22 st23">50</text>
<text transform="matrix(0.9817 -0.1904 0.1904 0.9817 402.7304 103.4389)" class="st18 st22 st23">30</text>
<text transform="matrix(0.9849 -0.1728 0.1728 0.9849 398.3658 91.8875)" class="st18 st22 st23">20</text>
<text transform="matrix(1 -6.750000e-03 6.750000e-03 1 390.8328 77.5906)" class="st24 st25">10</text>
<g>
	<g>
		<path class="st26" d="M386.5,57.9c-0.3-1-0.3-1.9-0.2-2.5c0.2-0.6,0.5-1,1.1-1.1c0.5-0.1,0.9,0,1.3,0.4c0.5,0.4,0.8,1.3,1.1,2.4
			c0.3,1,0.3,1.9,0.2,2.5c-0.2,0.6-0.5,1-1.1,1.1c-0.5,0.1-0.9,0-1.4-0.4C387.2,59.9,386.8,59.1,386.5,57.9z M387.2,57.8
			c0.2,1,0.5,1.7,0.8,2c0.3,0.3,0.6,0.4,0.9,0.3c0.3-0.1,0.5-0.3,0.6-0.7c0.1-0.4,0-1.1-0.2-2.1c-0.2-1-0.5-1.7-0.8-2
			c-0.3-0.3-0.6-0.4-0.9-0.3c-0.3,0.1-0.5,0.3-0.6,0.7C386.9,56,386.9,56.8,387.2,57.8z"/>
	</g>
	<g>
		<path class="st26" d="M376.9,45l-0.2-0.8l2-0.4l0.2,0.8L376.9,45z"/>
		<path class="st26" d="M382.2,45.9l-0.6,0.1l-1-4.9c-0.1,0.2-0.3,0.4-0.5,0.6c-0.2,0.2-0.4,0.4-0.6,0.5l-0.2-0.8
			c0.3-0.3,0.6-0.6,0.8-0.9c0.2-0.3,0.3-0.7,0.4-1l0.4-0.1L382.2,45.9z"/>
		<path class="st26" d="M383.2,42.5c-0.2-1.1-0.2-1.9-0.1-2.5c0.2-0.6,0.5-1,1.1-1.1c0.5-0.1,0.9,0,1.3,0.4c0.5,0.5,0.8,1.3,1,2.5
			c0.2,1.1,0.2,1.9,0.1,2.5c-0.2,0.6-0.5,1-1.1,1.1c-0.5,0.1-0.9-0.1-1.4-0.5C383.7,44.5,383.4,43.7,383.2,42.5z M383.8,42.3
			c0.2,1,0.4,1.7,0.7,2c0.3,0.3,0.6,0.4,0.9,0.4c0.3-0.1,0.5-0.3,0.6-0.7c0.1-0.4,0.1-1.1-0.1-2.1c-0.2-1-0.4-1.7-0.7-2
			c-0.3-0.3-0.6-0.4-0.9-0.4c-0.3,0.1-0.5,0.3-0.6,0.7C383.6,40.6,383.6,41.3,383.8,42.3z"/>
	</g>
	<g>
		<path class="st26" d="M375.6,28l-0.1-0.8l2-0.3l0.1,0.8L375.6,28z"/>
		<path class="st26" d="M381.6,28.1l0.1,0.7l-3.4,0.6c-0.1-0.3,0-0.7,0.1-1.1c0.1-0.4,0.4-0.9,0.8-1.5c0.5-0.7,0.8-1.2,0.9-1.6
			c0.1-0.4,0.2-0.7,0.1-1c-0.1-0.3-0.2-0.6-0.4-0.7c-0.2-0.2-0.5-0.2-0.8-0.2c-0.3,0.1-0.5,0.2-0.7,0.5c-0.2,0.3-0.2,0.6-0.1,1
			l-0.7,0c-0.1-0.6,0-1.1,0.3-1.5c0.2-0.4,0.6-0.6,1.1-0.7c0.5-0.1,1,0,1.3,0.3c0.3,0.3,0.5,0.7,0.6,1.1c0.1,0.4,0,0.8-0.1,1.2
			c-0.1,0.4-0.5,1-1,1.7c-0.3,0.5-0.5,0.8-0.6,0.9c-0.1,0.2-0.2,0.3-0.2,0.5L381.6,28.1z"/>
		<path class="st26" d="M381.9,25.6c-0.2-1.1-0.2-1.9,0-2.5c0.2-0.6,0.6-0.9,1.1-1c0.5-0.1,0.9,0.1,1.3,0.5c0.4,0.5,0.8,1.3,1,2.5
			c0.2,1.1,0.2,1.9,0,2.5c-0.2,0.6-0.6,0.9-1.1,1c-0.5,0.1-0.9-0.1-1.3-0.5C382.4,27.6,382.1,26.8,381.9,25.6z M382.5,25.5
			c0.2,1,0.4,1.7,0.7,2c0.3,0.3,0.5,0.4,0.9,0.4c0.3-0.1,0.5-0.3,0.6-0.7c0.1-0.4,0.1-1.1-0.1-2.1c-0.2-1-0.4-1.7-0.7-2
			s-0.5-0.4-0.9-0.4c-0.3,0.1-0.5,0.3-0.6,0.7C382.3,23.8,382.4,24.5,382.5,25.5z"/>
	</g>
	<g>
		<path class="st26" d="M373.3,18.4l-0.2-0.8l1.9-0.5l0.2,0.8L373.3,18.4z"/>
		<path class="st26" d="M375.8,18l0.6-0.3c0.3,0.8,0.8,1.1,1.3,1c0.3-0.1,0.5-0.3,0.7-0.6c0.1-0.3,0.2-0.6,0.1-1
			c-0.1-0.4-0.3-0.6-0.5-0.8c-0.3-0.2-0.5-0.2-0.8-0.2c-0.1,0-0.3,0.1-0.4,0.2l-0.1-0.7l0.1,0c0.3-0.1,0.5-0.2,0.7-0.5
			c0.1-0.2,0.2-0.5,0.1-0.8c-0.1-0.3-0.2-0.5-0.4-0.6c-0.2-0.1-0.4-0.2-0.7-0.1c-0.2,0.1-0.4,0.2-0.5,0.4c-0.1,0.2-0.2,0.5-0.1,0.9
			l-0.7,0c-0.1-0.6,0-1,0.2-1.3c0.2-0.3,0.5-0.6,0.9-0.7c0.4-0.1,0.8,0,1.2,0.2c0.4,0.2,0.6,0.6,0.7,1c0.1,0.3,0.1,0.5,0,0.8
			c-0.1,0.2-0.2,0.5-0.4,0.6c0.2,0,0.4,0.1,0.6,0.2c0.2,0.1,0.3,0.2,0.5,0.4c0.1,0.2,0.2,0.4,0.3,0.7c0.1,0.6,0.1,1.1-0.1,1.5
			c-0.2,0.5-0.6,0.7-1.1,0.9c-0.4,0.1-0.8,0-1.2-0.2C376.3,19,376,18.6,375.8,18z"/>
		<path class="st26" d="M379.4,15.6c-0.3-1-0.3-1.9-0.2-2.5c0.1-0.6,0.5-1,1-1.1c0.5-0.1,0.9,0,1.3,0.4c0.5,0.4,0.9,1.2,1.2,2.4
			c0.3,1,0.3,1.9,0.2,2.5c-0.1,0.6-0.5,1-1,1.1c-0.5,0.1-0.9,0-1.4-0.4C380.1,17.6,379.7,16.8,379.4,15.6z M380.1,15.4
			c0.3,1,0.5,1.7,0.8,2c0.3,0.3,0.6,0.4,0.9,0.3c0.3-0.1,0.5-0.3,0.6-0.7c0.1-0.4,0-1.1-0.2-2.1c-0.3-1-0.5-1.7-0.8-2
			c-0.3-0.3-0.6-0.4-0.9-0.3c-0.3,0.1-0.5,0.3-0.6,0.7C379.7,13.7,379.8,14.4,380.1,15.4z"/>
	</g>
</g>
<g>
	<path class="st26" d="M326.4,69.7l0-0.8l2,0l0,0.8L326.4,69.7z"/>
	<path class="st26" d="M328.9,69.9l0.7-0.1c0.1,0.4,0.2,0.7,0.4,0.9c0.2,0.2,0.4,0.3,0.7,0.3c0.3,0,0.6-0.2,0.8-0.4
		c0.2-0.3,0.3-0.7,0.3-1.2c0-0.5-0.1-0.8-0.3-1.1c-0.2-0.3-0.5-0.4-0.8-0.4c-0.2,0-0.4,0.1-0.5,0.2c-0.2,0.1-0.3,0.3-0.4,0.5
		l-0.6-0.1l0.5-3.3l2.6,0l0,0.8l-2.1,0l-0.3,1.7c0.3-0.3,0.6-0.4,1-0.4c0.4,0,0.8,0.2,1.2,0.5c0.3,0.4,0.5,0.9,0.5,1.5
		c0,0.6-0.1,1.2-0.5,1.6c-0.3,0.5-0.8,0.7-1.3,0.7c-0.5,0-0.8-0.1-1.2-0.5C329.1,70.9,329,70.5,328.9,69.9z"/>
	<path class="st26" d="M333,68.3c0-1.1,0.1-1.9,0.4-2.5c0.3-0.6,0.7-0.8,1.3-0.9c0.5,0,0.9,0.2,1.2,0.7c0.4,0.5,0.6,1.4,0.6,2.6
		c0,1.1-0.1,1.9-0.4,2.5c-0.3,0.6-0.7,0.8-1.3,0.9c-0.5,0-0.9-0.2-1.2-0.7C333.2,70.4,333,69.5,333,68.3z M333.7,68.3
		c0,1,0.1,1.7,0.3,2.1c0.2,0.4,0.5,0.5,0.8,0.5c0.3,0,0.5-0.2,0.7-0.6c0.2-0.4,0.3-1.1,0.3-2.1c0-1-0.1-1.7-0.3-2.1
		c-0.2-0.4-0.5-0.5-0.8-0.5c-0.3,0-0.5,0.2-0.7,0.6C333.7,66.6,333.6,67.3,333.7,68.3z"/>
</g>
<text transform="matrix(0.9719 -0.2355 0.2355 0.9719 387.3176 62.8558)" class="st22 st23">0</text>
<text transform="matrix(0.9806 -0.1962 0.1962 0.9806 377.9028 46.6899)" class="st22 st23">-10</text>
<text transform="matrix(0.9849 -0.1728 0.1728 0.9849 376.0236 32.629)" class="st22 st23">-20</text>
<text transform="matrix(0.9692 -0.2463 0.2463 0.9692 372.9103 22.0446)" class="st22 st23">-30</text>
<text transform="matrix(0.9999 -1.715000e-02 1.715000e-02 0.9999 331.7244 72.0737)" class="st22 st23">-50</text>
<path class="st27" d="M587.1,113.3c0,4.5-0.9,9.1-2.5,12.9c-0.9,2-2,3.8-3.3,5.1c-1.5,1.4-3.3,2.3-5.3,2.3c-2.2,0-5.4-1.2-6.6-3.1
	l-3.1,20.1l-7.5,0l3.3-20.7c-1.6,1.3-3.3,2.4-5,3.2c-0.9,4.7-2.1,9.6-3.2,11.7c-0.8,1.6-1.7,2.7-2.5,3.6c-0.9,0.8-1.8,1.5-2.6,1.7
	c-1,0.3-1.8,0.4-2.6,0.4c-0.7,0-1.4-0.1-2.1-0.5c-0.6-0.4-1.2-0.9-1.7-1.6c-0.4-0.6-0.8-1.4-1.1-2.2c-0.3-0.8-0.4-2-0.3-3.1
	c0.5-6.7,4.7-8.4,9-10.2l0.6-4.1c-5.9,7.9-15.8,7.3-13.4-8.1l3.6-22.7l7.4,0c-1.7,10.8-3,20.2-4.3,27.7c-1.2,7.7,5,3.3,7.6-2.7
	l3.9-25l7.3,0c-4.2,27.4-4.6,28.9-4.9,30.5c1.7-1,3.5-2.4,4.9-3.5l4.2-26.9l7.4,0l-0.3,2.3C582.5,92.7,587.2,103.5,587.1,113.3z
	 M549.5,135.6c-2.6,1.5-5.8,3.4-5.7,6.3c0,0.6,0.1,1.1,0.5,1.6c0.4,0.5,0.8,0.8,1.4,0.8c0.4,0,1-0.3,1.5-1.2
	c0.6-0.8,1.2-2.2,1.7-4.1C549.2,137.5,549.3,137,549.5,135.6z M573.7,103.8l-3.7,22.7c2.4,4,5.2,2.5,6.9-0.7c1.2-1.9,2-5,2.5-8.2
	C580.5,110.9,580.8,97.5,573.7,103.8z"/>
<path class="st28" d="M455,178c93.6-61.5,185-27,185-27c32.2,7.8,52,15,52,15s46.6,12.9,76,18c10.2,1.8,13.7-2.4,13.7-2.4
	c1.4-0.6,2-0.9,2.3-0.6c2.2,1.7-4.9,21.8-18,27c-7.7,3-14-0.5-29-6c-2.8-1-18.2-5.3-49-14c-8.5-2.4-31.4-8.8-53-11
	c-13.4-1.4-82-16.1-119.8,11.3c-46.9,34.1-40.6,35.4-60.2,43c-2.7,1.1-16.6-25.8-9-43.3C448.5,182.3,453.2,179.2,455,178z"/>
<path class="st29" d="M314.7,124.8c29.5,12.6,36.4,13.3,75.8,31.7c8,3.8-10.7,43.3-4.2,48.2c8.6,6.6,27.3-4.5,71.6-28.3
	c6.4-3.5,10,20.3,21.9,39.3c1.8,2.9-77.9,53.4-134,58.8c-25.8,2.5-50.2-15.3-61.5-33.5c-11.1-17.9-7.1-34.5,0.2-58.5
	C292.9,155,307.7,121.8,314.7,124.8z"/>
<path class="st30" d="M335.1,178.7c-27.5,61.4-31,64-39.8,49.7c-8.7-14.1-5.6-27.1,0.2-45.9c6.6-21.6,17.7-49.4,23.2-47
	c23.1,9.9-0.8-1,30.1,13.5"/>
<path class="st31" d="M720.5,179.2c-5.8,2.3-16.9,3.8-28.1-0.3c-2.1-0.8-35.6-7.8-58.6-14.2c-6.3-1.8-33.5-6.3-49.7-8
	c-10-1-53.1-1.4-82.4,17.4c-8.2,5.3-8.1,4.8-22.1,12.2c-1.9,1-3.1,0.6-6.1-5.9c-1.9-4.2,4.7-6.3,4.7-6.3
	c69.8-45.8,146.7-19.6,146.7-19.6c24.1,5.9,38.8,11.2,38.8,11.2S698.6,175.4,720.5,179.2"/>
<g>
	<path class="st32" d="M429.7,146.6c8.9,1.5,13.8,17.8,16.4,25.1l-6.1,3.5c-2.2-5.6-7.8-24.3-13.7-23.1c-0.9,0.3-1.7,0.9-2.6,1.8
		l9.9,24.9l-6.4,3.7l-17.4-44.9c-3.1,5.4-3.9,12.9,3.1,18.1l-4,7.4c-5.3-7.3-6.2-14.3-4.8-20.4c2.7-11.7,14.2-18.8,22.1-12
		C430.7,135,431.4,141.8,429.7,146.6z M422.1,150c3.6-2.7,4.6-7.5,1.2-13.3c-2.3-3.8-5.3-4.8-8.1-3.9L422.1,150z"/>
	<path class="st32" d="M467.5,133.5c-0.8,3.2-1.8,5.9-3.1,7.9c5.7,15-0.5,24.9-7.5,24.8c-5.5,0-9.8-4.6-12.1-10.6
		c-2.5-6.4-2.8-14.1,0-19.6c2.8-5.6,9.3-9.1,15.1-3c1,1,1.9,2.4,2.8,4.1c1.6-1.6,2.9-3.7,3.7-5.8L467.5,133.5z M459.2,145.4
		c-1.7,0.4-3.6,0.2-6-0.6l0.3-5.7c1,0.4,2,0.7,2.9,0.7c-3-4.3-8.1-6.9-8.4-0.6c-0.2,5.7,4.4,20.5,10.2,21.6c3.2,0.6,4.9-4.1,1.1-15
		C459.3,145.6,459.2,145.5,459.2,145.4z"/>
	<path class="st32" d="M479.7,126.4c-0.2-2.2-1.1-6.1-4.1-5c-1.2,0.3-2.4,1.4-2.8,2.7c-1.1,1.5-1,3.8-0.2,4.9c0.8,1.3,1.1,1.4,2.1,2
		c1.3,0.5,3,1,4.9,1.3c1.6,0.2,3.6,0.6,5.3,1.1c1.6,0.6,3,1.4,4.1,2.8c8.9,11.9-10.7,25.4-17.2,15.9c-1.9-2.8-2.1-7,0-10l5.5,2.2
		c-2.4,2.6-2.7,5.4-1.3,6.8c1.6,1.8,5.1,0.8,7.2-1.8c1.1-1.6,1.7-3.5,1.4-5.7c-0.3-2.5-2.9-3.5-4.9-4.1c-2.3-0.4-3.5-0.5-5.3-1.1
		c-1.7-0.3-4-1.3-5.4-2.5c-3.8-2.6-5.3-7.6-2.2-11.9c1.6-2.4,3.9-4,6.5-4.9c3.7-1.5,7.3-1,10.1,1.7c1.2,1.3,2.2,3.3,2.8,5.4
		L479.7,126.4z"/>
	<path class="st32" d="M502.4,116.6c0-2.2-0.6-6.2-3.7-5.3c-1.2,0.2-2.5,1.2-3,2.5c-1.2,1.5-1.3,3.7-0.6,4.9c0.7,1.4,0.9,1.5,2,2.2
		c1.2,0.6,2.9,1.3,4.8,1.7c1.6,0.3,3.6,0.9,5.2,1.5c1.6,0.7,2.8,1.7,3.9,3.1c8,12.5-12.6,24.5-18.3,14.5c-1.6-3-1.6-7.1,0.7-10
		l5.3,2.6c-2.6,2.5-3.1,5.2-1.8,6.7c1.5,1.9,5.1,1.2,7.3-1.2c1.2-1.5,2-3.4,1.8-5.6c-0.1-2.5-2.7-3.7-4.6-4.5
		c-2.2-0.6-3.4-0.7-5.2-1.5c-1.7-0.5-3.9-1.6-5.2-2.9c-3.6-2.9-4.7-8-1.3-12c1.8-2.3,4.2-3.7,6.9-4.4c3.8-1.2,7.4-0.5,9.9,2.5
		c1.1,1.4,1.9,3.4,2.4,5.6L502.4,116.6z"/>
	<path class="st32" d="M535,119.3c0.1,14-4.6,16.5-11.2,18c-1.7,0.4-3.5,0.8-5.4,1.2c-0.7,0.2-2.4,0.5-3,0.7l-3.5-49.4l6.8-1.5
		l1.1,15c1.1-1,2.3-1.8,3.7-2.1c2.3-0.5,4.2,0,5.8,1.1c1.4,1,2.5,2.6,3.5,4.5C534.3,110.1,535.1,114.7,535,119.3z M526.2,108.4
		c-1.5-2.5-3.8-3.5-6-1.1l1.7,24.4c7.5,4.8,7.8-8.6,6.8-15.3C528.2,113,527.3,110,526.2,108.4z"/>
	<path class="st32" d="M587.5,113.3c0,4.5-0.9,9.1-2.5,12.9c-0.9,2-2,3.8-3.3,5.1c-1.5,1.4-3.3,2.3-5.3,2.3c-2.2,0-5.4-1.2-6.6-3.1
		l-3.1,20.1l-7.5,0l3.3-20.7c-1.6,1.3-3.3,2.4-5,3.2c-0.9,4.7-2.1,9.6-3.2,11.7c-0.8,1.6-1.7,2.7-2.5,3.6c-0.9,0.8-1.8,1.5-2.6,1.7
		c-1,0.3-1.8,0.4-2.6,0.4c-0.7,0-1.4-0.1-2.1-0.5c-0.6-0.4-1.2-0.9-1.7-1.6c-0.4-0.6-0.8-1.4-1.1-2.2c-0.3-0.8-0.4-2-0.3-3.1
		c0.5-6.7,4.7-8.4,9-10.2l0.6-4.1c-5.9,7.9-15.8,7.3-13.4-8.1l3.6-22.7l7.4,0c-1.7,10.8-3,20.2-4.3,27.7c-1.2,7.7,5,3.3,7.6-2.7
		l3.9-25l7.3,0c-4.2,27.4-4.6,28.9-4.9,30.5c1.7-1,3.5-2.4,4.9-3.5l4.2-26.9l7.4,0l-0.3,2.3C582.8,92.7,587.6,103.5,587.5,113.3z
		 M549.9,135.6c-2.6,1.5-5.8,3.4-5.7,6.3c0,0.6,0.1,1.1,0.5,1.6c0.4,0.5,0.8,0.8,1.4,0.8c0.4,0,1-0.3,1.5-1.2
		c0.6-0.8,1.2-2.2,1.7-4.1C549.6,137.5,549.7,137,549.9,135.6z M574.1,103.8l-3.7,22.7c2.4,4,5.2,2.5,6.9-0.7c1.2-1.9,2-5,2.5-8.2
		C580.9,110.9,581.2,97.5,574.1,103.8z"/>
	<path class="st32" d="M621.8,126.6c-5.3,12.3-18.6,15.1-17.7,3.1c-7,10.2-18.8,6.6-15.9-7.6c2.2-11.1,7.9-21.7,17.4-20.9l13.3,1.8
		l-0.8,2.6c-3,10.4-5,16.4-7.2,24.2c-2.2,7.8,6.3,2.8,8.9-3.5L621.8,126.6z M609.7,108.3c-2.2-8.1-9.4-1.5-12.8,9.5
		c-3.7,12.3-1.1,19.3,7.9,7.3L609.7,108.3z"/>
	<path class="st32" d="M634.4,129.4c-6.4,13.5-21.8,14.7-15.9-3.2l11.7-35.3l7.1,1.2c-3.8,11.4-10.9,32.3-13.5,40
		c-2.5,7.7,5.8,3.1,8.5-3.1L634.4,129.4z"/>
	<path class="st32" d="M662.6,121.4c-2.6,2.1-5,3.6-7.3,4.4c-4.6,15.4-15.5,19.5-21.1,15.2c-4.4-3.3-5-9.6-3.2-15.8
		c1.9-6.5,6.3-12.9,11.9-15.6c5.6-2.7,12.9-1.7,13.8,6.8c0.2,1.4,0.1,3.1-0.3,4.9c2.2-0.3,4.5-1.2,6.5-2.4L662.6,121.4z
		 M648.7,125.9c-1.6-0.7-3-2-4.4-4.2l3.7-4.3c0.5,1,1.2,1.7,1.9,2.3c0.2-5.2-2.2-10.4-6.3-5.6c-3.6,4.4-8.9,19-5,23.4
		c2.1,2.4,6.4-0.2,10-11.3C648.7,126.1,648.7,126,648.7,125.9z"/>
	<path class="st32" d="M688.1,127.3c-2.6,2-5.1,3.4-7.4,4.2c-5,15.2-16,19.1-21.4,14.7c-4.3-3.4-4.8-9.7-2.8-15.8
		c2-6.5,6.6-12.7,12.2-15.3c5.7-2.6,12.9-1.3,13.7,7.1c0.1,1.4,0,3.1-0.4,4.9c2.2-0.2,4.5-1.1,6.5-2.2L688.1,127.3z M674.2,131.4
		c-1.6-0.8-2.9-2.1-4.3-4.3l3.8-4.2c0.5,1,1.1,1.8,1.8,2.3c0.3-5.2-2-10.5-6.1-5.7c-3.7,4.3-9.4,18.8-5.5,23.2
		c2.1,2.5,6.4-0.1,10.3-11C674.1,131.6,674.1,131.5,674.2,131.4z"/>
	<path class="st32" d="M709.6,122.3l-19.3,25c4.3-0.3,8.8,1.3,11.7,4.4l-5.3,3.4c-5.3-3-11.6-4.5-17.2-4.4l-1.1,0l20.7-27.1
		l-9.2-2.2l2-3.4L709.6,122.3z"/>
	<path class="st32" d="M736.5,152.9c-6.7,11.6-20.2,12.8-17.9,1c-8.2,9.3-19.4,4.4-14.9-9.4c3.5-10.7,10.4-20.6,19.7-18.7l13,3.3
		l-1.1,2.5c-4.2,10-6.9,15.7-10,23.2c-3.1,7.4,5.9,3.5,9.2-2.4L736.5,152.9z M726.6,133.3c-1.2-8.3-9.2-2.6-13.8,8
		c-5.1,11.8-3.3,19,7,8.2L726.6,133.3z"/>
</g>
<path id="SVGID_x5F_1_x5F_" class="st33" d="M392.6,199.3c29.1-24.1,7.6,21.4,26.2-13c1.3-2.3,29.1-15.5,64.2-32.9
	c49.5-24.5,78-34.5,253,11.7"/>
<text><textPath  xlink:href="#SVGID_x5F_1_x5F_" startOffset="26.2447%">
<tspan  style="fill:#1B1B1B; font-family:'BlendaScript'; font-size:70px;">Rossbypalooza</tspan></textPath>
</text>
<rect x="365.6" y="1.1" class="st18" width="11.5" height="11.2"/>
<text transform="matrix(0.9859 -0.1674 0.1674 0.9859 365.1001 11.1935)" class="st22 st23">-40</text>
</svg>
